<svg version="1.1" id="Layer_1" xmlns="http://www.w3.org/2000/svg" xmlns:xlink="http://www.w3.org/1999/xlink" x="0px" y="0px"
	 width="100%" viewBox="0 0 80 80" enable-background="new 0 0 80 80" xml:space="preserve">
<path fill="#000000" opacity="1.000000" stroke="none" 
	d="
M53.000000,81.000000 
	C35.333332,81.000000 18.166666,81.000000 1.000000,81.000000 
	C1.000000,54.333332 1.000000,27.666666 1.000000,1.000000 
	C27.666666,1.000000 54.333332,1.000000 81.000000,1.000000 
	C81.000000,27.666666 81.000000,54.333332 81.000000,81.000000 
	C71.833336,81.000000 62.666668,81.000000 53.000000,81.000000 
M54.790497,26.284838 
	C54.219738,17.853542 50.433121,11.276562 43.184742,6.921564 
	C34.168934,1.504647 24.636215,1.302021 15.637538,6.322719 
	C5.508143,11.974288 1.001990,22.997223 3.251733,34.648712 
	C5.608425,46.854095 17.048235,55.350132 27.220406,55.481052 
	C28.294823,72.291985 43.181168,82.008766 59.438625,78.273582 
	C72.877525,75.185959 80.632912,64.870949 78.602776,48.310928 
	C77.262123,37.375126 68.526283,27.779013 54.790497,26.284838 
z"/>
<path fill="#A8D3AF" opacity="1.000000" stroke="none" 
	d="
M54.614727,27.107220 
	C68.526283,27.779013 77.262123,37.375126 78.602776,48.310928 
	C80.632912,64.870949 72.877525,75.185959 59.438625,78.273582 
	C43.181168,82.008766 28.294823,72.291985 27.178787,54.640648 
	C27.732115,49.842480 28.327061,45.884720 29.106987,41.666977 
	C29.854427,40.285999 30.416891,39.165009 31.268328,37.871948 
	C37.822697,31.077131 45.075821,26.604403 54.614727,27.107220 
M59.035942,62.525383 
	C61.914604,57.672382 61.343372,55.025600 56.716179,52.325123 
	C55.145153,51.408253 53.322857,50.883121 51.855957,49.840508 
	C50.907032,49.166054 50.394669,47.877388 49.686676,46.863953 
	C50.863831,46.187756 51.985920,45.098827 53.231133,44.932686 
	C55.071037,44.687195 56.998466,45.097679 58.888622,45.228832 
	C59.162045,44.768391 59.435463,44.307949 59.708885,43.847507 
	C57.424294,41.998543 55.139702,40.149582 53.127888,38.521381 
	C51.622799,39.691360 50.348358,40.865761 48.904999,41.770756 
	C43.899532,44.909225 43.748245,49.575447 48.707680,52.794018 
	C50.507816,53.962269 52.600002,54.687534 54.369205,55.893307 
	C55.192684,56.454525 56.252586,58.056385 55.996067,58.526001 
	C55.461269,59.505077 54.150452,60.597038 53.107410,60.650749 
	C50.888371,60.765011 48.636719,60.245869 46.398434,59.986340 
	C46.082291,60.438900 45.766151,60.891464 45.450008,61.344025 
	C48.045650,63.420662 50.641296,65.497299 52.554630,67.028053 
	C54.711254,65.557045 56.581432,64.281410 59.035942,62.525383 
z"/>
<path fill="#7FABE3" opacity="1.000000" stroke="none" 
	d="
M54.702614,26.696030 
	C45.075821,26.604403 37.822697,31.077131 30.905785,37.807781 
	C28.832804,37.059044 27.411335,36.202408 25.989868,35.345768 
	C27.430494,34.097900 28.305210,34.145092 29.032005,33.839958 
	C30.253515,33.327118 31.380974,32.590260 32.548000,31.947647 
	C31.421759,31.315388 30.352430,30.522959 29.152971,30.096748 
	C27.996271,29.685726 26.705235,29.652763 24.608585,29.314014 
	C28.009268,28.008146 30.276859,27.137386 32.544453,26.266628 
	C30.567204,25.221704 28.589954,24.176777 26.349768,22.992893 
	C28.055571,19.156008 31.576826,20.351240 34.634258,20.644907 
	C34.547321,16.560604 34.112408,16.095253 30.616446,15.989987 
	C23.766663,15.783733 19.020664,21.427221 18.108772,30.862913 
	C17.714376,34.943882 23.569544,40.934860 28.922009,41.926960 
	C28.327061,45.884720 27.732115,49.842480 27.122564,54.207203 
	C17.048235,55.350132 5.608425,46.854095 3.251733,34.648712 
	C1.001990,22.997223 5.508143,11.974288 15.637538,6.322719 
	C24.636215,1.302021 34.168934,1.504647 43.184742,6.921564 
	C50.433121,11.276562 54.219738,17.853542 54.702614,26.696030 
z"/>
<path fill="#F5EEC3" opacity="1.000000" stroke="none" 
	d="
M29.106987,41.666977 
	C23.569544,40.934860 17.714376,34.943882 18.108772,30.862913 
	C19.020664,21.427221 23.766663,15.783733 30.616446,15.989987 
	C34.112408,16.095253 34.547321,16.560604 34.634258,20.644907 
	C31.576826,20.351240 28.055571,19.156008 26.349768,22.992893 
	C28.589954,24.176777 30.567204,25.221704 32.544453,26.266628 
	C30.276859,27.137386 28.009268,28.008146 24.608585,29.314014 
	C26.705235,29.652763 27.996271,29.685726 29.152971,30.096748 
	C30.352430,30.522959 31.421759,31.315388 32.548000,31.947647 
	C31.380974,32.590260 30.253515,33.327118 29.032005,33.839958 
	C28.305210,34.145092 27.430494,34.097900 25.989868,35.345768 
	C27.411335,36.202408 28.832804,37.059044 30.616814,37.979851 
	C30.416891,39.165009 29.854427,40.285999 29.106987,41.666977 
z"/>
<path fill="#4C8661" opacity="1.000000" stroke="none" 
	d="
M58.743778,62.765579 
	C56.581432,64.281410 54.711254,65.557045 52.554630,67.028053 
	C50.641296,65.497299 48.045650,63.420662 45.450008,61.344025 
	C45.766151,60.891464 46.082291,60.438900 46.398434,59.986340 
	C48.636719,60.245869 50.888371,60.765011 53.107410,60.650749 
	C54.150452,60.597038 55.461269,59.505077 55.996067,58.526001 
	C56.252586,58.056385 55.192684,56.454525 54.369205,55.893307 
	C52.600002,54.687534 50.507816,53.962269 48.707680,52.794018 
	C43.748245,49.575447 43.899532,44.909225 48.904999,41.770756 
	C50.348358,40.865761 51.622799,39.691360 53.127888,38.521381 
	C55.139702,40.149582 57.424294,41.998543 59.708885,43.847507 
	C59.435463,44.307949 59.162045,44.768391 58.888622,45.228832 
	C56.998466,45.097679 55.071037,44.687195 53.231133,44.932686 
	C51.985920,45.098827 50.863831,46.187756 49.686676,46.863953 
	C50.394669,47.877388 50.907032,49.166054 51.855957,49.840508 
	C53.322857,50.883121 55.145153,51.408253 56.716179,52.325123 
	C61.343372,55.025600 61.914604,57.672382 58.743778,62.765579 
z"/>
</svg>